<svg xmlns="http://www.w3.org/2000/svg" viewBox="0 0 256 256" role="img" aria-label="R G favicon">
  <defs>
    <linearGradient id="rgGradient" x1="0" y1="0" x2="1" y2="1">
      <stop offset="0%" stop-color="#ff4d2d" />
      <stop offset="100%" stop-color="#f6c453" />
    </linearGradient>
  </defs>
  <rect width="256" height="256" rx="56" fill="#0b0d12" />
  <rect x="16" y="16" width="224" height="224" rx="48" fill="none" stroke="url(#rgGradient)" stroke-width="8" />
  <g fill="url(#rgGradient)">
    <path d="M70 176V80h52c26 0 44 14 44 38 0 20-12 33-30 37l34 41h-30l-30-38H98v38H70zm28-60h22c12 0 20-7 20-18s-8-18-20-18H98v36z" />
    <path d="M178 176c-30 0-52-22-52-52s22-52 52-52c20 0 37 9 46 25l-24 13c-4-8-12-13-22-13-15 0-26 11-26 27s11 27 26 27c10 0 18-4 22-12v-2h-24v-22h50v18c0 27-20 43-48 43z" />
  </g>
</svg>
